<?xml version="1.0" encoding="UTF-8" standalone="no"?>
<!DOCTYPE svg PUBLIC "-//W3C//DTD SVG 1.1//EN" "http://www.w3.org/Graphics/SVG/1.1/DTD/svg11.dtd">
<!-- Created with Vectornator (http://vectornator.io/) -->
<svg height="100%" stroke-miterlimit="10" style="fill-rule:nonzero;clip-rule:evenodd;stroke-linecap:round;stroke-linejoin:round;" version="1.1" viewBox="0 0 1000 1000" width="100%" xml:space="preserve" xmlns="http://www.w3.org/2000/svg" xmlns:vectornator="http://vectornator.io" xmlns:xlink="http://www.w3.org/1999/xlink">
<defs/>
<g id="Layer-1" vectornator:layerName="Layer 1">
<path d="M896.823 483.441C900.266 483.459 903.287 483.527 906.757 483.633C907.208 483.67 907.221 484.057 907.214 484.25C904.364 485.258 901.52 486.072 898.448 487.159C895.052 488.252 891.885 489.072 888.468 490.161C887.121 490.806 886.024 491.182 884.586 491.641C879.5 492.996 874.755 494.267 869.274 495.724C863.439 497.513 858.339 499.118 852.871 500.825C844.074 503.429 835.645 505.931 826.796 508.478C824.727 508.674 823.036 508.635 821.438 509.002C797.398 514.527 773.451 520.489 749.315 525.549C730.481 529.496 711.483 532.809 692.432 535.517C677.902 537.582 663.193 538.609 648.527 539.414C640.45 539.857 632.269 539.187 624.183 538.482C613.35 537.537 602.499 536.463 591.776 534.711C582.537 533.202 573.429 530.812 564.329 528.547C554.307 526.053 544.213 523.705 534.414 520.489C519.235 515.506 504.29 509.811 489.214 504.507C487.484 503.899 485.553 503.86 483.715 503.557C483.448 504.068 483.182 504.579 482.915 505.09C484.245 506.206 485.416 507.655 486.933 508.379C493.305 511.419 499.824 514.149 506.206 517.17C512.722 520.254 519.261 523.325 525.573 526.796C536.048 532.554 546.928 537.82 556.59 544.753C571.69 555.587 585.49 568.235 600.617 579.026C619.372 592.404 637.058 606.743 651.217 625.05C663.2 640.544 675.07 656.124 686.99 671.666C679.509 669.864 672.644 667.389 666.003 664.416C650.162 657.324 634.072 650.663 618.762 642.548C606.954 636.289 595.928 628.434 585.011 620.648C574.004 612.797 563.485 604.249 552.891 595.831C543.862 588.657 533.995 582.173 526.327 573.724C510.161 555.911 495.207 537 479.694 518.592C478.849 517.589 477.43 517.071 475.02 515.515C475.441 519.049 475.421 521.023 475.938 522.847C477.91 529.81 480.359 536.65 482.079 543.671C486.812 562.989 491.361 582.354 495.792 601.743C498.174 612.164 500.319 622.645 502.297 633.151C505.768 651.589 509.46 670.003 512.235 688.55C514.259 702.079 515.627 715.784 516.086 729.45C516.737 748.821 515.321 768.09 512.54 787.383C509.918 805.572 505.525 823.176 500.189 840.636C497.747 848.628 495.004 856.532 492.236 864.419C488.437 875.246 484.489 886.021 480.596 896.816C477.809 904.544 475.017 912.271 472.207 919.992C469.375 927.775 466.52 935.55 463.303 944.344C461.999 941.137 460.99 939.097 460.327 936.95C456.599 924.872 453.065 912.733 449.249 900.683C445.424 888.608 441.004 876.713 437.478 864.555C434.327 853.686 431.679 842.638 429.472 831.538C427.294 820.577 425.903 809.458 424.255 798.396C423.527 793.507 422.786 788.6 422.463 783.675C421.921 775.406 421.175 767.095 421.495 758.839C421.891 748.626 423.249 738.448 424.261 728.262C425.29 717.916 425.817 707.474 427.629 697.263C429.954 684.164 433.484 671.283 436.237 658.254C439.396 643.298 442.305 628.29 445.261 613.292C446.979 604.571 448.868 595.869 450.158 587.082C451.834 575.665 453.055 564.179 454.353 552.71C455.725 540.58 456.952 528.434 458.252 516.296C458.545 513.569 458.88 510.847 459.371 506.607C457.052 508.061 455.584 508.556 454.75 509.571C447.25 518.7 439.53 527.675 432.519 537.17C421.955 551.474 410.666 565.042 396.896 576.387C388.166 583.58 379.475 590.83 370.55 597.776C363.176 603.515 355.316 608.632 347.969 614.403C332.272 626.733 315.881 637.855 297.39 645.659C287.858 649.682 278.517 654.16 268.962 658.122C261.519 661.208 253.877 663.815 246.126 666.452C245.797 666.15 245.665 666.028 245.73 665.622C247.191 663.422 248.336 661.415 249.737 659.607C256.174 651.298 263.063 643.312 269.085 634.716C282.121 616.109 296.982 599.383 315.344 585.803C328.865 575.805 342.012 565.3 355.307 554.996C368.186 545.014 380.608 534.396 395.556 527.402C405.694 522.659 415.719 517.676 425.749 512.708C427.112 512.033 428.208 510.818 429.427 509.854C429.098 509.167 428.769 508.48 428.441 507.793C423.252 509.422 418.039 510.976 412.88 512.696C400.252 516.907 387.852 521.997 374.986 525.253C358.278 529.48 341.222 532.35 324.289 535.663C303.705 539.69 282.927 540.716 262.083 538.528C242.261 536.448 222.415 534.361 202.727 531.318C185.677 528.682 168.784 524.932 151.916 521.242C139.08 518.434 126.395 514.941 113.641 511.764C105.515 509.74 97.3852 507.736 88.8841 505.635C80.7592 503.273 73.0077 500.998 64.8752 498.657C59.0813 496.968 53.6681 495.345 48.255 493.723C44.1723 492.378 40.0896 491.033 35.6281 489.706C32.4837 488.785 29.718 487.847 26.6014 486.816C24.5627 485.919 22.875 485.115 21.1874 484.311C21.2298 484.041 21.2721 483.77 21.3145 483.5C23.3552 483.5 25.3958 483.5 27.8455 483.445C32.292 483.094 36.3293 482.798 40.8084 482.448C44.4048 482.01 47.5595 481.624 51.4483 480.918C56.5402 480.194 60.8979 479.792 65.7121 479.443C74.5392 478.558 82.9099 477.62 91.7382 476.635C111.469 474.115 130.816 472.103 149.992 469.027C166.378 466.397 182.554 462.471 198.849 459.254C215.771 455.914 232.629 452.033 249.693 449.688C266.024 447.444 282.59 445.785 299.043 445.863C315.66 445.94 332.452 445.558 348.93 449.411C361.563 452.364 374.538 453.924 387.083 457.176C399.622 460.427 411.795 465.077 424.182 468.943C426.258 469.591 428.604 469.374 430.825 469.557C431.036 469.16 431.247 468.763 431.458 468.365C430.61 467.401 429.947 466.058 428.882 465.537C423.866 463.081 418.644 461.037 413.676 458.495C406.364 454.754 398.739 451.372 392.074 446.667C377.325 436.254 363.064 425.148 348.656 414.257C337.183 405.585 325.612 397.03 314.403 388.026C301.069 377.314 290.287 364.131 279.918 350.639C270.376 338.223 260.989 325.689 251.73 313.023C252.055 312.716 252.186 312.593 252.677 312.528C257.453 314.416 261.898 316.179 266.277 318.09C280.219 324.174 294.363 329.856 307.996 336.572C319.58 342.281 330.915 348.672 341.716 355.746C352.533 362.829 362.604 371.061 372.903 378.918C383.488 386.993 394.32 394.799 404.385 403.487C418.896 416.014 431.248 430.618 442.557 446.098C444.024 448.106 445.62 450.739 449.072 448.797C449.072 447.921 449.29 447.029 449.039 446.297C446.01 437.46 442.95 428.633 439.823 419.83C434.726 405.477 429.477 391.178 424.497 376.786C422.779 371.819 421.363 366.702 420.345 361.548C417.989 349.612 415.776 337.642 413.858 325.629C412.378 316.358 410.605 307.018 410.414 297.679C409.933 274.147 409.463 250.586 414.135 227.262C416.912 213.399 418.567 199.314 421.228 185.425C423.889 171.539 427.094 157.753 430.207 143.956C433.749 128.261 437.248 112.551 441.156 96.9455C443.789 86.4335 447.052 76.0772 450.118 65.6764C454.16 51.9677 458.285 38.2837 462.636 24.3925C463.448 22.7942 463.999 21.3923 464.87 19.1798C465.155 20.9472 465.285 21.7551 465.362 23.024C465.303 26.8168 465.016 30.1765 465.342 33.4758C466.88 49.0731 468.512 64.662 470.253 80.2381C471.864 94.6566 473.354 109.099 475.457 123.449C477.363 136.464 479.774 149.419 482.41 162.309C486.661 183.1 491.697 203.738 495.603 224.59C498.479 239.943 500.099 255.532 502.241 271.021C502.896 275.754 503.602 280.491 503.974 285.251C504.529 292.348 505.222 299.474 505.092 306.574C504.959 313.819 504.005 321.059 503.229 328.281C501.927 340.409 501.171 352.653 498.911 364.607C496.348 378.163 492.829 391.585 488.914 404.826C484.165 420.885 478.53 436.681 473.369 452.62C472.388 455.651 471.826 458.818 470.751 463.239C473.363 462.226 475.029 462.091 475.803 461.19C478.802 457.693 481.398 453.853 484.36 450.321C496.018 436.423 507.143 422.002 519.676 408.935C528.722 399.504 539.457 391.617 549.841 383.561C565.776 371.198 581.872 359.022 598.275 347.292C605.759 341.939 613.915 337.388 622.17 333.285C632.143 328.328 642.508 324.148 652.769 319.788C662.684 315.575 672.684 311.56 682.982 307.319C681.413 309.842 680.238 312.135 678.695 314.145C668.103 327.931 657.603 341.792 646.743 355.365C635.781 369.068 623.322 381.257 609.104 391.678C595.699 401.503 582.321 411.413 569.505 421.981C550.691 437.494 530.621 450.701 507.822 459.63C502.326 461.783 497.096 464.677 491.924 467.554C490.637 468.27 490.053 470.248 489.145 471.646C497.217 470.3 504.216 468.506 511.003 466.11C532.472 458.531 554.247 452.117 576.926 449.549C592.341 447.804 607.834 446.669 623.318 445.665C628.559 445.325 633.882 446.196 639.165 446.564C653.68 447.573 668.32 447.751 682.676 449.857C699.571 452.337 716.228 456.459 732.973 459.942C746.496 462.754 759.94 465.98 773.523 468.459C786.634 470.851 799.872 472.557 813.065 474.491C818.108 475.23 823.181 475.763 828.674 476.45C830.879 476.721 832.652 476.94 834.426 477.142C841.03 477.895 847.636 478.642 854.696 479.448C859.514 479.802 863.878 480.099 868.243 480.395C873.964 481.086 879.686 481.777 885.825 482.43C889.629 482.758 893.014 483.125 896.823 483.441Z" fill="#000000" fill-rule="nonzero" opacity="1" stroke="none"/>
</g>
</svg>
